<?xml version="1.0" encoding="utf-8"?>
<!-- Generator: Adobe Illustrator 16.0.0, SVG Export Plug-In . SVG Version: 6.00 Build 0)  -->
<!DOCTYPE svg PUBLIC "-//W3C//DTD SVG 1.1//EN" "http://www.w3.org/Graphics/SVG/1.1/DTD/svg11.dtd">
<svg version="1.1" id="Layer_1" xmlns="http://www.w3.org/2000/svg" xmlns:xlink="http://www.w3.org/1999/xlink" x="0px" y="0px"
	 width="419px" height="293px" viewBox="0 0 419 293" enable-background="new 0 0 419 293" xml:space="preserve">
<g>
	<path fill="#FFFFFF" d="M65.984,36.073c34.986-1.784,69.951-4.275,104.917-6.416c62.823-3.846,125.646-7.693,188.468-11.541
		c-5.026-3.869-11.313-6.177-18.134-6.177H75.284c-14.502,0-26.61,10.417-29.25,24.162C53.068,36.09,59.972,36.38,65.984,36.073"/>
</g>
<g>
	<path fill="#FFFFFF" d="M317.73,194.759c-29.076,0.14-58.152,0.518-87.226,1.002c-36.743,0.616-73.482,1.402-110.223,2.106
		c-16.702,0.321-33.443,0.515-50.104,0.692c-6.394,0.066-14.696,0.963-22.99,1.096c4.087,11.579,15.135,19.903,28.096,19.903h42.574
		h6.393h6.394l-4.581,11.937l-12.021,31.337l48.737-31.337l18.568-11.937h11.039h1.764h147.084c14.006,0,25.778-9.72,28.945-22.765
		C352.357,197.624,332.269,194.69,317.73,194.759"/>
	<path fill="#78CFE1" d="M33.555,41.73c0-1.74,0.12-3.451,0.327-5.136c-12.119,1.151-23.31,4.808-29.529,15.781
		c-9.474,16.718-1.215,40.85,1.536,58.571c3.363,21.665,6.864,43.41,6.864,65.396c0,15.461,9.713,21.004,21.851,22.688
		c-0.678-2.981-1.049-6.079-1.049-9.263V41.73z"/>
</g>
<g>
	<path fill="#78CFE1" d="M389.189,16.29c-4.751,0.291-9.501,0.582-14.252,0.873c-3.533,0.217-7.067,0.433-10.601,0.65
		c-1.656,0.101-3.312,0.202-4.968,0.303c-62.823,3.848-125.645,7.695-188.468,11.541c-34.966,2.141-69.931,4.632-104.917,6.416
		c-6.012,0.307-12.916,0.017-19.95,0.028c-0.35,1.823-0.54,3.703-0.54,5.629v148.038c0,3.465,0.601,6.792,1.694,9.887
		c8.294-0.133,16.596-1.029,22.99-1.096c16.661-0.178,33.402-0.371,50.104-0.692c36.741-0.704,73.48-1.49,110.223-2.106
		c29.073-0.484,58.149-0.862,87.226-1.002c14.539-0.068,34.627,2.865,52.45,2.035c1.824-0.085,3.618-0.22,5.387-0.391
		c2.396-0.23,4.743-0.538,7.001-0.959c1.353-0.253,2.678-0.543,3.97-0.875c3.038-0.779,5.892-1.787,8.504-3.073
		c16.735-8.242,13.885-34.657,15.388-50.183c2.245-23.206,4.387-46.42,6.424-69.646C419.162,45.338,426.825,13.986,389.189,16.29"/>
	<path d="M375.567,196.403c-1.769,0.171-3.562,0.306-5.387,0.391c-3.166,13.045-14.939,22.765-28.945,22.765H194.151h-1.764h-11.039
		l-18.568,11.937l-48.737,31.337l12.021-31.337l4.581-11.937h-6.394h-6.393H75.284c-12.961,0-24.009-8.324-28.096-19.903
		c-1.093-3.095-1.694-6.422-1.694-9.887V67.462l0.098-28.03c0.089-1.129,0.233-2.241,0.442-3.33
		c2.639-13.745,14.748-24.162,29.25-24.162h265.951c6.819,0,13.106,2.308,18.134,6.177c1.655-0.101,3.312-0.202,4.968-0.303
		c3.533-0.217,7.067-0.434,10.601-0.65C367.34,6.771,355.066,0,341.235,0H75.284c-0.144,0-0.286,0.009-0.429,0.01V0
		c-23.01,0-41.729,18.721-41.729,41.73v148.038c0,23.009,18.719,41.727,41.729,41.727v-0.009c0.143,0.001,0.285,0.009,0.429,0.009
		h37.994l-23.438,61.09l95.016-61.09h156.379c21.083,0,38.554-15.719,41.333-36.052
		C380.311,195.865,377.964,196.173,375.567,196.403"/>
	<path d="M129.405,72.281h-14.326l-2.824,6.631h-5.485l12.894-28.652h5.239l12.934,28.652h-5.566L129.405,72.281z M127.646,68.106
		l-5.404-12.525l-5.362,12.525H127.646z"/>
	<polygon points="147.55,54.764 138.054,54.764 138.054,50.26 162.367,50.26 162.367,54.764 152.871,54.764 152.871,78.912 
		147.55,78.912 	"/>
	<polygon points="168.068,50.26 173.389,50.26 173.389,74.409 188.37,74.409 188.37,78.912 168.068,78.912 	"/>
	<path d="M213.064,72.281h-14.327l-2.824,6.631h-5.485l12.893-28.652h5.24l12.934,28.652h-5.567L213.064,72.281z M211.303,68.106
		L205.9,55.581l-5.362,12.525H211.303z"/>
	<polygon points="252.286,50.26 252.286,78.912 247.907,78.912 232.107,59.511 232.107,78.912 226.827,78.912 226.827,50.26 
		231.207,50.26 247.006,69.661 247.006,50.26 	"/>
	<polygon points="267.484,54.764 257.988,54.764 257.988,50.26 282.302,50.26 282.302,54.764 272.805,54.764 272.805,78.912 
		267.484,78.912 	"/>
	<rect x="288.002" y="50.26" width="5.321" height="28.652"/>
	<path d="M308.172,77.418c-2.334-1.269-4.161-3.021-5.484-5.26c-1.324-2.237-1.985-4.761-1.985-7.572
		c0-2.81,0.668-5.334,2.005-7.572c1.337-2.237,3.173-3.99,5.505-5.26c2.334-1.269,4.947-1.902,7.839-1.902
		c2.347,0,4.489,0.408,6.427,1.228c1.937,0.819,3.574,2.006,4.911,3.562l-3.438,3.232c-2.075-2.236-4.626-3.355-7.654-3.355
		c-1.965,0-3.725,0.429-5.279,1.289c-1.557,0.859-2.771,2.053-3.644,3.581c-0.874,1.528-1.311,3.262-1.311,5.198
		c0,1.938,0.437,3.671,1.311,5.198c0.872,1.529,2.087,2.722,3.644,3.582c1.555,0.86,3.314,1.289,5.279,1.289
		c3.028,0,5.579-1.132,7.654-3.397l3.438,3.274c-1.337,1.556-2.981,2.743-4.932,3.562c-1.951,0.818-4.1,1.228-6.447,1.228
		C313.117,79.321,310.505,78.688,308.172,77.418"/>
	<path d="M101.407,98.259c2.481,1.116,4.395,2.712,5.742,4.785c1.347,2.073,2.021,4.511,2.021,7.312c0,2.8-0.674,5.228-2.021,7.283
		c-1.347,2.056-3.261,3.642-5.742,4.759c-2.481,1.116-5.405,1.674-8.772,1.674h-6.487v9.729H75.621V96.584h17.014
		C96.002,96.584,98.926,97.143,101.407,98.259 M96.888,114.368c1.098-0.938,1.648-2.276,1.648-4.013c0-1.737-0.55-3.084-1.648-4.041
		c-1.099-0.958-2.73-1.437-4.892-1.437h-5.848v10.899h5.848C94.158,115.777,95.79,115.309,96.888,114.368"/>
	<path d="M126.689,132.047c-3.137-1.666-5.601-3.97-7.391-6.912c-1.79-2.941-2.685-6.256-2.685-9.942c0-3.686,0.895-7,2.685-9.942
		c1.79-2.94,4.254-5.245,7.391-6.912c3.137-1.665,6.672-2.498,10.607-2.498c3.934,0,7.47,0.833,10.607,2.498
		c3.137,1.667,5.599,3.972,7.39,6.912c1.79,2.942,2.685,6.257,2.685,9.942c0,3.687-0.895,7.001-2.685,9.942
		c-1.791,2.942-4.253,5.246-7.39,6.912c-3.137,1.666-6.673,2.499-10.607,2.499C133.361,134.546,129.826,133.713,126.689,132.047
		 M142.4,124.497c1.524-0.886,2.729-2.136,3.616-3.749c0.885-1.611,1.328-3.464,1.328-5.556c0-2.09-0.443-3.942-1.328-5.555
		c-0.887-1.614-2.092-2.863-3.616-3.749c-1.524-0.886-3.226-1.329-5.104-1.329c-1.879,0-3.581,0.443-5.105,1.329
		c-1.523,0.886-2.729,2.135-3.615,3.749c-0.886,1.612-1.329,3.465-1.329,5.555c0,2.092,0.443,3.944,1.329,5.556
		c0.886,1.613,2.092,2.863,3.615,3.749c1.524,0.887,3.226,1.329,5.105,1.329C139.174,125.826,140.876,125.384,142.4,124.497"/>
	<path d="M167.229,96.584h17.599c4.075,0,7.691,0.763,10.846,2.286c3.154,1.525,5.6,3.687,7.337,6.486
		c1.736,2.801,2.605,6.08,2.605,9.836c0,3.758-0.869,7.037-2.605,9.836c-1.737,2.801-4.183,4.964-7.337,6.486
		c-3.155,1.524-6.771,2.286-10.846,2.286h-17.599V96.584z M184.402,125.4c3.19,0,5.751-0.903,7.683-2.71
		c1.931-1.81,2.897-4.308,2.897-7.498s-0.966-5.688-2.897-7.496c-1.932-1.809-4.493-2.712-7.683-2.712h-6.646V125.4H184.402z"/>
	<path d="M222.922,132.073c-3.102-1.648-5.539-3.942-7.311-6.885c-1.773-2.942-2.658-6.274-2.658-9.996s0.885-7.053,2.658-9.996
		c1.772-2.941,4.209-5.236,7.311-6.884c3.1-1.649,6.6-2.473,10.5-2.473c3.403,0,6.468,0.603,9.199,1.808
		c2.729,1.206,4.998,2.942,6.804,5.21l-6.697,6.062c-2.413-2.906-5.335-4.359-8.773-4.359c-2.021,0-3.82,0.443-5.396,1.328
		c-1.578,0.887-2.801,2.136-3.669,3.749c-0.869,1.613-1.303,3.466-1.303,5.556c0,2.092,0.434,3.943,1.303,5.556
		c0.868,1.613,2.091,2.863,3.669,3.749c1.576,0.887,3.375,1.329,5.396,1.329c3.438,0,6.361-1.453,8.773-4.36l6.697,6.062
		c-1.806,2.269-4.074,4.006-6.804,5.21c-2.731,1.205-5.796,1.809-9.199,1.809C229.522,134.546,226.022,133.722,222.922,132.073"/>
	<path d="M282.125,126.57h-15.738l-2.925,7.23h-10.738l16.428-37.217h10.368l16.481,37.217h-10.953L282.125,126.57z M279.04,118.809
		l-4.785-11.91l-4.785,11.91H279.04z"/>
	<path d="M307.007,133.43c-2.837-0.744-5.14-1.736-6.912-2.978l3.455-7.762c1.666,1.098,3.599,1.984,5.796,2.658
		c2.197,0.673,4.36,1.009,6.486,1.009c4.042,0,6.062-1.009,6.062-3.03c0-1.062-0.577-1.851-1.729-2.366
		c-1.153-0.514-3.004-1.054-5.557-1.621c-2.8-0.603-5.14-1.25-7.018-1.94c-1.88-0.691-3.491-1.798-4.839-3.323
		c-1.347-1.523-2.021-3.58-2.021-6.168c0-2.267,0.621-4.314,1.861-6.14c1.24-1.826,3.093-3.271,5.556-4.333
		c2.464-1.064,5.484-1.596,9.065-1.596c2.446,0,4.856,0.274,7.231,0.823c2.374,0.551,4.466,1.357,6.273,2.42l-3.242,7.815
		c-3.547-1.914-6.983-2.871-10.315-2.871c-2.092,0-3.616,0.311-4.573,0.93c-0.956,0.621-1.435,1.428-1.435,2.42
		s0.565,1.736,1.701,2.233c1.134,0.496,2.959,1.01,5.477,1.541c2.835,0.604,5.185,1.25,7.044,1.94
		c1.861,0.691,3.475,1.791,4.838,3.298c1.365,1.507,2.047,3.553,2.047,6.14c0,2.234-0.619,4.254-1.86,6.062
		c-1.241,1.809-3.103,3.253-5.582,4.333c-2.481,1.081-5.494,1.622-9.039,1.622C312.767,134.546,309.842,134.174,307.007,133.43"/>
	<polygon points="348.211,104.931 336.78,104.931 336.78,96.584 370.116,96.584 370.116,104.931 358.739,104.931 358.739,133.801 
		348.211,133.801 	"/>
	<path d="M125.356,179.347c-2.061-0.628-3.691-1.459-4.891-2.496l1.842-4.135c1.172,0.929,2.612,1.686,4.318,2.271
		c1.705,0.588,3.418,0.88,5.137,0.88c2.128,0,3.718-0.341,4.768-1.022c1.051-0.683,1.576-1.582,1.576-2.7
		c0-0.82-0.293-1.495-0.88-2.028c-0.587-0.531-1.33-0.947-2.231-1.248c-0.9-0.3-2.128-0.64-3.683-1.022
		c-2.184-0.519-3.951-1.036-5.301-1.556c-1.351-0.518-2.511-1.331-3.48-2.435c-0.968-1.106-1.453-2.601-1.453-4.483
		c0-1.582,0.43-3.021,1.29-4.318c0.859-1.296,2.155-2.325,3.888-3.09c1.733-0.764,3.854-1.146,6.365-1.146
		c1.746,0,3.465,0.218,5.157,0.654c1.692,0.437,3.152,1.064,4.38,1.884l-1.678,4.133c-1.255-0.736-2.565-1.296-3.93-1.678
		c-1.364-0.383-2.687-0.573-3.97-0.573c-2.101,0-3.663,0.354-4.686,1.064c-1.024,0.709-1.536,1.651-1.536,2.824
		c0,0.818,0.293,1.487,0.881,2.006c0.586,0.519,1.33,0.929,2.231,1.228c0.9,0.301,2.128,0.642,3.683,1.023
		c2.129,0.491,3.875,1.002,5.24,1.534c1.364,0.532,2.53,1.345,3.499,2.437c0.968,1.092,1.453,2.564,1.453,4.42
		c0,1.583-0.429,3.016-1.289,4.298c-0.86,1.284-2.163,2.306-3.909,3.071c-1.747,0.763-3.875,1.145-6.385,1.145
		C129.551,180.288,127.416,179.976,125.356,179.347"/>
	<path d="M155.788,176.953c-2.21-2.224-3.315-5.41-3.315-9.558v-16.168h5.321v15.964c0,5.622,2.429,8.431,7.286,8.431
		c4.83,0,7.245-2.809,7.245-8.431v-15.964h5.239v16.168c0,4.147-1.099,7.334-3.295,9.558c-2.197,2.224-5.274,3.335-9.23,3.335
		C161.082,180.288,157.999,179.177,155.788,176.953"/>
	<polygon points="215.425,179.879 215.383,160.887 205.97,176.605 203.596,176.605 194.182,161.133 194.182,179.879 
		189.106,179.879 189.106,151.228 193.485,151.228 204.864,170.22 216.039,151.228 220.418,151.228 220.46,179.879 	"/>
	<polygon points="258.606,179.879 258.566,160.887 249.152,176.605 246.779,176.605 237.363,161.133 237.363,179.879 
		232.288,179.879 232.288,151.228 236.668,151.228 248.047,170.22 259.221,151.228 263.601,151.228 263.643,179.879 	"/>
	<rect x="275.47" y="151.228" width="5.321" height="28.651"/>
</g>
<g>
	<polygon points="298.433,155.73 288.937,155.73 288.937,151.228 313.25,151.228 313.25,155.73 303.753,155.73 303.753,179.879 
		298.433,179.879 	"/>
</g>
</svg>
